<svg width="113" height="392" viewBox="0 0 113 392" fill="none" xmlns="http://www.w3.org/2000/svg">
<path d="M-95 7.3914C-95 3.24104 -91.6328 -0.136862 -87.4848 0.00431174C-35.0492 1.78904 14.8455 22.1989 52.0782 57.2835C91.0858 94.0407 113 143.894 113 195.876C113 247.859 91.0858 297.712 52.0782 334.469C14.8456 369.554 -35.0491 389.964 -87.4848 391.749C-91.6328 391.89 -95 388.512 -95 384.362C-95 380.211 -91.6328 376.861 -87.4852 376.708C-39.2811 374.931 6.55862 356.107 40.7998 323.842C76.8162 289.903 97.0499 243.873 97.0499 195.876C97.0499 147.88 76.8161 101.85 40.7998 67.9113C6.55857 35.6455 -39.2812 16.8219 -87.4852 15.0448C-91.6328 14.8919 -95 11.5418 -95 7.3914Z" fill="#FFECEC" fill-opacity="0.4"/>
</svg>
