<svg width="75" height="392" viewBox="0 0 75 392" fill="none" xmlns="http://www.w3.org/2000/svg">
<path d="M208 384.362C208 388.512 204.633 391.89 200.485 391.749C148.049 389.964 98.1545 369.554 60.9218 334.469C21.9142 297.712 7.12201e-06 247.859 2.33728e-06 195.876C-2.44745e-06 143.894 21.9142 94.0407 60.9218 57.2835C98.1544 22.1989 148.049 1.78903 200.485 0.0042968C204.633 -0.136887 208 3.24102 208 7.3914C208 11.5418 204.633 14.8919 200.485 15.0448C152.281 16.8219 106.441 35.6455 72.2002 67.9113C36.1838 101.85 15.9501 147.88 15.9501 195.876C15.9501 243.873 36.1839 289.903 72.2002 323.842C106.441 356.107 152.281 374.931 200.485 376.708C204.633 376.861 208 380.211 208 384.362Z" fill="#FFECEC" fill-opacity="0.4"/>
</svg>
