<svg width="37" height="33" viewBox="0 0 37 33" fill="none" xmlns="http://www.w3.org/2000/svg">
<path d="M26.8252 0.5C29.5975 0.500044 31.888 1.43255 33.7314 3.29297C35.5749 5.15358 36.5 7.46687 36.5 10.2686C36.5 13.712 35.2437 16.8812 32.6934 19.7881C30.0866 22.7593 27.1243 25.7486 23.8066 28.7559L23.8037 28.7578L20.6592 31.6523L20.6504 31.6602L20.6426 31.668C20.356 31.9572 20.0271 32.1639 19.6533 32.2939C19.2541 32.4328 18.8705 32.5 18.5 32.5C18.1295 32.5 17.7459 32.4328 17.3467 32.2939C16.9729 32.1639 16.644 31.9572 16.3574 31.668L16.3418 31.6523L13.1504 28.7119C9.89288 25.7035 6.95212 22.7206 4.32812 19.7627C1.76341 16.8716 0.5 13.711 0.5 10.2686C0.500041 7.46687 1.42512 5.15358 3.26855 3.29297C5.11199 1.43255 7.4025 0.500044 10.1748 0.5C11.7346 0.5 13.2019 0.833318 14.582 1.5C15.9685 2.16987 17.1459 3.08374 18.1172 4.24219L18.5 4.69922L18.8828 4.24219C19.8541 3.08374 21.0315 2.16987 22.418 1.5C23.7981 0.833318 25.2654 0.5 26.8252 0.5Z" fill="white" stroke="#DB1841"/>
</svg>
